<svg viewBox="0 0 48 48" xmlns="http://www.w3.org/2000/svg" xmlns:xlink="http://www.w3.org/1999/xlink" width="48.000000" height="48.000000" fill="none">
	<rect id="Icon" width="48.000000" height="48.000000" x="0.000000" y="0.000000" />
	<path id="Vector" d="M24.225 29.4187C26.1085 27.8342 27.4592 25.7088 28.094 23.3307C28.7288 20.9527 28.617 18.4369 27.7737 16.1245C26.9304 13.8121 25.3965 11.815 23.3798 10.4039C21.3631 8.99271 18.9613 8.23584 16.5 8.23584C14.0386 8.23584 11.6368 8.99271 9.62016 10.4039C7.60349 11.815 6.06954 13.8121 5.22625 16.1245C4.38297 18.4369 4.27115 20.9527 4.90595 23.3307C5.54075 25.7088 6.89147 27.8342 8.77498 29.4187C5.72031 30.801 3.09171 32.9764 1.16248 35.7187C0.82008 36.2062 0.685035 36.8097 0.78697 37.3967C0.888905 37.9837 1.2195 38.5063 1.70623 38.8499C2.08358 39.1196 2.53616 39.2639 2.99998 39.2624C3.36075 39.2635 3.7164 39.177 4.03643 39.0105C4.35646 38.8439 4.63133 38.6022 4.83748 38.3062C6.15208 36.4338 7.89816 34.9055 9.92811 33.8504C11.9581 32.7953 14.2122 32.2445 16.5 32.2445C18.7878 32.2445 21.0419 32.7953 23.0719 33.8504C25.1018 34.9055 26.8479 36.4338 28.1625 38.3062C28.3255 38.5638 28.5391 38.7855 28.7904 38.9581C29.0417 39.1306 29.3254 39.2502 29.6243 39.3098C29.9233 39.3693 30.2312 39.3675 30.5294 39.3044C30.8276 39.2414 31.1099 39.1183 31.3592 38.9429C31.6084 38.7674 31.8194 38.5431 31.9793 38.2836C32.1392 38.0241 32.2448 37.7348 32.2895 37.4333C32.3342 37.1318 32.3172 36.8243 32.2395 36.5296C32.1618 36.2348 32.025 35.959 31.8375 35.7187C29.9083 32.9764 27.2797 30.801 24.225 29.4187ZM8.99998 20.2499C8.99998 18.7666 9.43985 17.3165 10.264 16.0831C11.0881 14.8498 12.2594 13.8885 13.6299 13.3208C15.0003 12.7532 16.5083 12.6046 17.9632 12.894C19.418 13.1834 20.7544 13.8977 21.8033 14.9466C22.8522 15.9955 23.5665 17.3319 23.8559 18.7867C24.1453 20.2416 23.9967 21.7496 23.4291 23.12C22.8614 24.4905 21.9001 25.6618 20.6668 26.4859C19.4334 27.3101 17.9833 27.7499 16.5 27.7499C14.5109 27.7499 12.6032 26.9597 11.1967 25.5532C9.79016 24.1467 8.99998 22.239 8.99998 20.2499ZM46.575 38.8499C46.1976 39.1196 45.7451 39.2639 45.2812 39.2624C44.921 39.2603 44.5665 39.1725 44.247 39.0062C43.9275 38.84 43.6521 38.6 43.4437 38.3062C42.1263 36.4371 40.3795 34.9115 38.3501 33.8576C36.3207 32.8038 34.068 32.2524 31.7812 32.2499C31.1845 32.2499 30.6122 32.0129 30.1902 31.5909C29.7683 31.169 29.5312 30.5967 29.5312 29.9999C29.5312 29.4032 29.7683 28.8309 30.1902 28.4089C30.6122 27.987 31.1845 27.7499 31.7812 27.7499C33.7704 27.7499 35.678 26.9597 37.0845 25.5532C38.4911 24.1467 39.2812 22.239 39.2812 20.2499C39.2812 18.2608 38.4911 16.3531 37.0845 14.9466C35.678 13.5401 33.7704 12.7499 31.7812 12.7499C31.0964 12.7486 30.4148 12.8433 29.7562 13.0312C29.4703 13.1165 29.1702 13.144 28.8734 13.1122C28.5767 13.0805 28.2893 12.99 28.0279 12.846C27.7664 12.7021 27.5363 12.5076 27.3507 12.2738C27.1652 12.0401 27.028 11.7718 26.9472 11.4845C26.8664 11.1972 26.8435 10.8967 26.8799 10.6005C26.9163 10.3044 27.0113 10.0184 27.1593 9.75921C27.3073 9.50007 27.5053 9.27296 27.742 9.0911C27.9786 8.90924 28.249 8.77627 28.5375 8.69992C29.5925 8.39956 30.6843 8.2481 31.7812 8.24992C34.2442 8.24277 36.6496 8.99486 38.6698 10.4038C40.69 11.8127 42.2269 13.8101 43.0713 16.1238C43.9156 18.4376 44.0264 20.9553 43.3884 23.3343C42.7505 25.7132 41.3949 27.8378 39.5062 29.4187C42.5609 30.801 45.1895 32.9764 47.1187 35.7187C47.2907 35.9592 47.4132 36.2316 47.479 36.5199C47.5447 36.8082 47.5526 37.1067 47.502 37.3981C47.4514 37.6894 47.3434 37.9678 47.1842 38.2171C47.0251 38.4663 46.818 38.6814 46.575 38.8499Z" fill="rgb(76,175,79)" fill-rule="nonzero" />
	<path id="Vector" d="M25.0205 28.6857C26.4902 27.2038 27.5525 25.3592 28.094 23.3307C28.7288 20.9527 28.617 18.4369 27.7737 16.1245C26.9304 13.8121 25.3965 11.815 23.3798 10.4039C21.3631 8.99271 18.9613 8.23584 16.5 8.23584C14.0386 8.23584 11.6368 8.99271 9.62016 10.4039C7.60349 11.815 6.06954 13.8121 5.22625 16.1245C4.38297 18.4369 4.27115 20.9527 4.90595 23.3307C5.44743 25.3592 6.5098 27.2038 7.97942 28.6857C8.23271 28.9411 8.49809 29.1857 8.77498 29.4187C8.4444 29.5683 8.1188 29.7272 7.79854 29.8951C5.15955 31.2785 2.88292 33.2732 1.16248 35.7187C0.82008 36.2062 0.685035 36.8097 0.78697 37.3967C0.888905 37.9837 1.2195 38.5063 1.70623 38.8499C2.08358 39.1196 2.53616 39.2639 2.99998 39.2624C3.36075 39.2635 3.7164 39.177 4.03643 39.0105C4.35646 38.8439 4.63133 38.6022 4.83748 38.3062C6.15208 36.4338 7.89816 34.9055 9.92811 33.8504C11.9581 32.7953 14.2122 32.2445 16.5 32.2445C18.7878 32.2445 21.0419 32.7953 23.0719 33.8504C25.1018 34.9055 26.8479 36.4338 28.1625 38.3062C28.3255 38.5638 28.5391 38.7855 28.7904 38.9581C29.0417 39.1306 29.3254 39.2502 29.6243 39.3098C29.9233 39.3693 30.2312 39.3675 30.5294 39.3044C30.8276 39.2414 31.1099 39.1183 31.3592 38.9429C31.6084 38.7674 31.8194 38.5431 31.9793 38.2836C32.1392 38.0241 32.2448 37.7348 32.2895 37.4333C32.3342 37.1318 32.3172 36.8243 32.2395 36.5296C32.1618 36.2348 32.025 35.959 31.8375 35.7187C30.117 33.2732 27.8404 31.2785 25.2014 29.8951C24.8812 29.7272 24.5556 29.5683 24.225 29.4187C24.5019 29.1857 24.7673 28.9411 25.0205 28.6857ZM40.4836 29.8956C40.1631 29.7275 39.8372 29.5684 39.5062 29.4187C39.784 29.1862 40.0502 28.942 40.3043 28.6869C41.7781 27.2074 42.8443 25.3634 43.3884 23.3343C44.0264 20.9553 43.9156 18.4376 43.0713 16.1238C42.2269 13.8101 40.69 11.8127 38.6698 10.4038C36.6496 8.99486 34.2442 8.24277 31.7812 8.24992C30.6843 8.2481 29.5925 8.39956 28.5375 8.69992C28.249 8.77627 27.9786 8.90924 27.742 9.0911C27.5053 9.27296 27.3073 9.50007 27.1593 9.75921C27.0113 10.0184 26.9163 10.3044 26.8799 10.6005C26.8435 10.8967 26.8664 11.1972 26.9472 11.4845C27.028 11.7718 27.1652 12.0401 27.3507 12.2738C27.5363 12.5076 27.7664 12.7021 28.0279 12.846C28.2893 12.99 28.5767 13.0805 28.8734 13.1122C29.1702 13.144 29.4703 13.1165 29.7562 13.0312C30.4148 12.8433 31.0964 12.7486 31.7812 12.7499C33.7704 12.7499 35.678 13.5401 37.0845 14.9466C38.4911 16.3531 39.2812 18.2608 39.2812 20.2499C39.2812 22.239 38.4911 24.1467 37.0845 25.5532C35.678 26.9597 33.7704 27.7499 31.7812 27.7499C31.1845 27.7499 30.6122 27.987 30.1902 28.4089C29.7683 28.8309 29.5312 29.4032 29.5312 29.9999C29.5312 30.5967 29.7683 31.169 30.1902 31.5909C30.6122 32.0129 31.1845 32.2499 31.7812 32.2499C34.068 32.2524 36.3207 32.8038 38.3501 33.8576C40.3795 34.9115 42.1263 36.4371 43.4437 38.3062C43.6521 38.6 43.9275 38.84 44.247 39.0062C44.5665 39.1725 44.921 39.2603 45.2812 39.2624C45.7451 39.2639 46.1976 39.1196 46.575 38.8499C46.818 38.6814 47.0251 38.4663 47.1842 38.2171C47.3434 37.9678 47.4514 37.6894 47.502 37.3981C47.5526 37.1067 47.5447 36.8082 47.479 36.5199C47.4132 36.2316 47.2907 35.9592 47.1187 35.7187C45.3985 33.2735 43.1222 31.279 40.4836 29.8956ZM27.5014 19.7468C27.5504 20.8478 27.4258 21.9565 27.1278 23.0728C26.8298 24.1892 26.3853 25.2124 25.7942 26.1425C25.2031 27.0726 24.4654 27.9096 23.5812 28.6534L22.3665 29.6753L23.8127 30.3297C25.2851 30.996 26.6218 31.8262 27.823 32.8202C29.0241 33.8143 30.0897 34.9722 31.0196 36.2941L31.0339 36.3144L31.0492 36.334C31.1019 36.4015 31.1468 36.4728 31.1841 36.5479C31.2213 36.6229 31.2508 36.7018 31.2726 36.7845C31.2943 36.8672 31.3076 36.9503 31.3122 37.0339C31.3168 37.1177 31.3129 37.2019 31.3003 37.2866C31.2878 37.3712 31.2671 37.4529 31.2384 37.5316C31.2097 37.6103 31.1729 37.6861 31.128 37.7589C31.0831 37.8318 31.0319 37.8987 30.9745 37.9598C30.9171 38.0208 30.8534 38.076 30.7835 38.1252C30.7135 38.1745 30.64 38.2159 30.5631 38.2494C30.4863 38.2828 30.4061 38.3084 30.3225 38.3261C30.2389 38.3437 30.1553 38.3528 30.0716 38.3534C29.9877 38.3539 29.9037 38.3458 29.8197 38.329C29.7358 38.3123 29.6552 38.2877 29.578 38.2551C29.5008 38.2226 29.4269 38.1821 29.3564 38.1336C29.2858 38.0852 29.2215 38.0308 29.1633 37.9704C29.1052 37.9101 29.0533 37.8438 29.0075 37.7715L28.9947 37.7512L28.9809 37.7316C28.2671 36.7149 27.4562 35.8092 26.5482 35.0144C25.6402 34.2197 24.6352 33.5359 23.533 32.9631C22.4308 32.3902 21.2936 31.9606 20.1214 31.6741C18.9493 31.3877 17.7421 31.2445 16.5 31.2445C15.2578 31.2445 14.0507 31.3877 12.8785 31.6741C11.7063 31.9606 10.5691 32.3902 9.46693 32.9631C8.37497 33.5307 7.37813 34.2074 6.47642 34.9932C5.55783 35.7938 4.73797 36.7076 4.01683 37.7347C3.9591 37.8176 3.89341 37.8915 3.81974 37.9563C3.74606 38.021 3.66441 38.0767 3.57479 38.1234C3.50083 38.1619 3.42458 38.1924 3.34605 38.2149C3.23425 38.2469 3.11781 38.2628 2.99673 38.2624C2.87676 38.2628 2.7616 38.2468 2.65124 38.2144C2.52186 38.1765 2.39909 38.116 2.28293 38.033C2.14216 37.9336 2.02922 37.8166 1.9441 37.6821C1.85899 37.5475 1.8017 37.3954 1.77222 37.2256C1.74258 37.0549 1.74538 36.8916 1.78062 36.7355C1.81548 36.5812 1.88206 36.434 1.98036 36.2941C2.91027 34.9723 3.9758 33.8143 5.17695 32.8203C6.3781 31.8262 7.71487 30.996 9.18727 30.3297L10.6334 29.6753L9.41873 28.6534C8.53454 27.9096 7.79689 27.0726 7.20578 26.1425C6.61468 25.2124 6.17013 24.1892 5.87212 23.0728C5.57412 21.9565 5.44958 20.8478 5.49852 19.7468C5.54745 18.6459 5.76986 17.5527 6.16573 16.4671C6.56161 15.3816 7.09519 14.4018 7.76648 13.5278C8.43777 12.6538 9.24677 11.8856 10.1935 11.2232C11.1402 10.5607 12.1391 10.0639 13.1902 9.73268C14.2412 9.40145 15.3445 9.23584 16.5 9.23584C17.6555 9.23584 18.7587 9.40145 19.8098 9.73269C20.8609 10.0639 21.8598 10.5607 22.8065 11.2232C23.7532 11.8856 24.5622 12.6538 25.2334 13.5278C25.9048 14.4018 26.4384 15.3816 26.8342 16.4671C27.2301 17.5526 27.4525 18.6459 27.5014 19.7468ZM45.287 38.2624L45.2845 38.2624C45.1832 38.2617 45.0848 38.2494 44.9892 38.2257C44.8928 38.2019 44.7993 38.1663 44.7086 38.1192C44.618 38.072 44.5353 38.0158 44.4605 37.9506C44.3856 37.8854 44.3185 37.811 44.2594 37.7277C43.5498 36.7209 42.7448 35.8231 41.8444 35.0342C40.9314 34.2342 39.9202 33.5462 38.811 32.9702C37.7094 32.3981 36.5729 31.9687 35.4014 31.682C34.23 31.3953 33.0236 31.2513 31.7823 31.2499C31.6081 31.2499 31.4469 31.219 31.2985 31.1571C31.1522 31.0961 31.0185 31.005 30.8974 30.8838C30.7753 30.7618 30.6838 30.6271 30.6228 30.4797C30.5617 30.3324 30.5312 30.1725 30.5312 29.9999C30.5312 29.8273 30.5617 29.6674 30.6228 29.5201C30.6838 29.3728 30.7753 29.2381 30.8974 29.116C31.0194 28.994 31.1541 28.9025 31.3014 28.8414C31.4487 28.7804 31.6087 28.7499 31.7812 28.7499C32.3448 28.7499 32.8977 28.696 33.4398 28.5882C33.9819 28.4803 34.5134 28.3186 35.034 28.1029C35.5547 27.8872 36.0448 27.6259 36.5044 27.3188C36.964 27.0117 37.3931 26.6589 37.7916 26.2603C38.1901 25.8618 38.5429 25.4328 38.85 24.9733C39.1571 24.5136 39.4185 24.0235 39.6342 23.5027C39.8499 22.982 40.0117 22.4505 40.1195 21.9083C40.2273 21.3662 40.2812 20.8134 40.2812 20.2499C40.2812 19.6864 40.2273 19.1336 40.1195 18.5915C40.0117 18.0493 39.8499 17.5178 39.6342 16.9971C39.4185 16.4764 39.1571 15.9862 38.85 15.5266C38.5429 15.067 38.1901 14.638 37.7916 14.2395C37.3932 13.841 36.9641 13.4882 36.5046 13.1812C36.0449 12.874 35.5548 12.6126 35.034 12.3969C34.5134 12.1813 33.982 12.0195 33.4399 11.9117C32.8977 11.8038 32.3448 11.7499 31.7812 11.7499C31.4069 11.7492 31.0359 11.7733 30.6683 11.8223C30.2689 11.8754 29.8735 11.9578 29.4819 12.0695C29.348 12.1094 29.2145 12.1278 29.0816 12.1246C29.0477 12.1238 29.0138 12.1216 28.98 12.1179C28.8967 12.109 28.8159 12.0922 28.7376 12.0676C28.6593 12.0429 28.5835 12.0104 28.5102 11.97C28.4368 11.9297 28.3688 11.883 28.3061 11.83C28.2434 11.777 28.1861 11.7177 28.134 11.6522C28.0819 11.5866 28.0372 11.5172 27.9999 11.4441C27.9625 11.371 27.9325 11.2942 27.9098 11.2136C27.8871 11.133 27.8727 11.0517 27.8664 10.9699C27.8602 10.888 27.8622 10.8056 27.8724 10.7225C27.8826 10.6395 27.9007 10.5591 27.9265 10.4812C27.9524 10.4032 27.9861 10.3279 28.0276 10.2551C28.0692 10.1824 28.1169 10.1151 28.1709 10.0533C28.2248 9.99142 28.285 9.93498 28.3513 9.88396C28.4177 9.83293 28.4878 9.78931 28.5615 9.75308C28.6351 9.71687 28.7124 9.68806 28.7933 9.66664C29.4398 9.48266 30.0921 9.3596 30.7501 9.29745C31.0917 9.26519 31.4349 9.24935 31.7796 9.24992C32.9457 9.24654 34.0586 9.41175 35.1185 9.74557C36.1632 10.0746 37.1563 10.5674 38.0978 11.224C39.0461 11.8854 39.8564 12.653 40.5288 13.5268C41.2011 14.4005 41.7355 15.3805 42.1319 16.4666C42.5282 17.5528 42.7506 18.6466 42.7991 19.7481C42.8475 20.8495 42.722 21.9586 42.4226 23.0753C42.1231 24.192 41.6769 25.2151 41.0838 26.1446C40.4908 27.074 39.751 27.9097 38.8644 28.6518L37.6438 29.6735L39.0939 30.3297C40.5663 30.996 41.9031 31.8262 43.1043 32.8203C44.3054 33.8143 45.371 34.9723 46.3009 36.2941C46.3693 36.3899 46.4229 36.4911 46.4615 36.5978C46.4786 36.6449 46.4928 36.6931 46.504 36.7424C46.5223 36.8226 46.5326 36.9031 46.5347 36.9838C46.5368 37.0646 46.5308 37.1457 46.5167 37.227C46.5026 37.3082 46.481 37.3864 46.4517 37.4618C46.4225 37.5371 46.3857 37.6095 46.3414 37.6789C46.2971 37.7482 46.2471 37.8119 46.1912 37.87C46.1351 37.9284 46.0731 37.9811 46.0052 38.0281C45.8743 38.1216 45.7363 38.1871 45.591 38.2246C45.4929 38.25 45.3916 38.2626 45.287 38.2624ZM11.1024 13.6729C10.4667 14.1947 9.91 14.8129 9.43249 15.5276C8.955 16.2422 8.59687 16.993 8.35812 17.7801C8.11936 18.5671 7.99998 19.3904 7.99998 20.2499C7.99998 20.8135 8.0539 21.3664 8.16174 21.9085C8.26957 22.4506 8.43133 22.982 8.64701 23.5027C8.86267 24.0234 9.12405 24.5135 9.43113 24.9731C9.73823 25.4327 10.091 25.8618 10.4896 26.2603C10.8881 26.6589 11.3172 27.0117 11.7768 27.3188C12.2364 27.6259 12.7265 27.8872 13.2472 28.1029C13.7679 28.3186 14.2993 28.4803 14.8415 28.5882C15.3836 28.696 15.9364 28.7499 16.5 28.7499C17.3595 28.7499 18.1827 28.6305 18.9698 28.3918C19.7569 28.153 20.5077 27.7949 21.2223 27.3174C21.937 26.8399 22.5552 26.2833 23.077 25.6475C23.5987 25.0117 24.0241 24.2968 24.353 23.5027C24.6819 22.7087 24.8866 21.9024 24.9672 21.0839C25.0479 20.2654 25.0043 19.4346 24.8367 18.5917C24.669 17.7487 24.3913 16.9646 24.0036 16.2393C23.6159 15.5139 23.1182 14.8473 22.5104 14.2395C21.9027 13.6318 21.2361 13.134 20.5108 12.7463C19.7854 12.3586 19.0012 12.0809 18.1583 11.9132C17.3153 11.7456 16.4845 11.702 15.666 11.7827C14.8475 11.8633 14.0412 12.068 13.2472 12.3969C12.4531 12.7258 11.7382 13.1512 11.1024 13.6729ZM10.264 16.0831C9.43985 17.3165 8.99998 18.7666 8.99998 20.2499C8.99998 22.239 9.79016 24.1467 11.1967 25.5532C12.6032 26.9597 14.5109 27.7499 16.5 27.7499C17.9833 27.7499 19.4334 27.3101 20.6668 26.4859C21.9001 25.6618 22.8614 24.4905 23.4291 23.12C23.9967 21.7496 24.1453 20.2416 23.8559 18.7867C23.5665 17.3319 22.8522 15.9955 21.8033 14.9466C20.7544 13.8977 19.418 13.1834 17.9632 12.894C16.5083 12.6046 15.0003 12.7532 13.6299 13.3208C12.2594 13.8885 11.0881 14.8498 10.264 16.0831Z" fill="rgb(76,175,79)" fill-rule="evenodd" />
</svg>
