<svg viewBox="0 0 48 48" xmlns="http://www.w3.org/2000/svg" xmlns:xlink="http://www.w3.org/1999/xlink" width="48.000000" height="48.000000" fill="none" customFrame="#000000">
	<rect id="Icon" width="48.000000" height="48.000000" x="0.000000" y="0.000000" />
	<g id="Group 2">
		<path id="Vector" d="M11.1408 2.40078C10.9 2.40078 10.6764 2.46698 10.4778 2.57347L10.4778 2.57064C10.4778 2.19181 10.3305 1.83603 10.0634 1.56957C9.7962 1.3024 9.4407 1.15515 9.0623 1.15515C8.81798 1.15515 8.59157 1.223 8.39083 1.33232C8.37057 0.985757 8.23204 0.661821 7.9849 0.414417C7.71773 0.147248 7.36222 0 6.98358 0C6.23129 0 5.62038 0.59135 5.57635 1.33256C5.34358 1.20675 5.08042 1.14078 4.80899 1.15821C4.06895 1.20675 3.4894 1.84615 3.4894 2.61423L3.4894 8.98088L2.76444 7.72492C2.48832 7.24454 1.97144 6.94628 1.41493 6.94628C1.14376 6.94628 0.875887 7.01743 0.638645 7.15337C0.343208 7.32465 0.131877 7.59959 0.0439945 7.92851C-0.044352 8.25764 0.0013514 8.60185 0.17216 8.89684C0.172395 8.89684 2.54415 13.004 2.68884 13.2563C2.70604 13.2943 2.75505 13.4043 2.79675 13.498C2.83657 13.5876 2.87073 13.6795 2.90347 13.7718C3.61873 15.7911 5.38976 17.0454 7.52569 17.0454C10.2994 17.0454 12.5559 14.5985 12.5559 11.5908L12.5561 3.81648C12.5561 3.43811 12.4091 3.08259 12.1422 2.81517C11.875 2.548 11.5195 2.40075 11.1407 2.40075L11.1408 2.40078ZM7.52571 16.2933C5.69038 16.2933 4.22755 15.2566 3.61242 13.5203C3.57307 13.41 3.53208 13.2998 3.48425 13.1923C3.34548 12.8811 3.34548 12.8811 3.30638 12.8363L3.30119 12.8408C3.10753 12.4754 2.5322 11.4791 0.823412 8.52041C0.753202 8.39908 0.734588 8.25818 0.770402 8.12343C0.806684 7.98866 0.893622 7.87511 1.01401 7.80561C1.38767 7.59098 1.89941 7.72951 2.11237 8.10057L3.53986 10.572C3.62515 10.7193 3.79761 10.7916 3.963 10.7468C4.12745 10.7028 4.24171 10.5536 4.24171 10.3835L4.24171 2.61401C4.24171 2.24743 4.5183 1.93103 4.85829 1.90865C5.05431 1.89829 5.23713 1.96402 5.37448 2.10114C5.49935 2.226 5.56814 2.39233 5.56814 2.57021L5.56814 7.65159C5.56814 7.85938 5.7366 8.02784 5.94439 8.02784C6.15219 8.02784 6.32064 7.85962 6.32064 7.65159L6.32041 1.41522C6.32041 1.04957 6.61797 0.752013 6.98361 0.752013C7.16125 0.752013 7.32805 0.820806 7.45316 0.945672C7.57803 1.07077 7.64682 1.23757 7.64682 1.41522L7.64682 7.65159C7.64682 7.85939 7.81504 8.02784 8.02307 8.02784C8.23087 8.02784 8.39932 7.85962 8.39932 7.65159L8.39909 2.62866L8.39909 2.57023C8.39909 2.20482 8.69665 1.90727 9.06253 1.90727C9.23993 1.90727 9.40627 1.9763 9.53208 2.10164C9.65695 2.22627 9.72574 2.3926 9.72574 2.57048L9.72574 7.65185C9.72574 7.85965 9.89396 8.0281 10.102 8.0281C10.3098 8.0281 10.4782 7.85989 10.4782 7.65185L10.4778 3.81631C10.4778 3.45042 10.7753 3.15286 11.1407 3.15286C11.3186 3.15286 11.4849 3.22189 11.6098 3.34652C11.7351 3.47186 11.8037 3.63867 11.8037 3.81631L11.8039 11.5907C11.8039 14.1834 9.88477 16.2932 7.52569 16.2932L7.52571 16.2933Z" fill="rgb(76,175,79)" fill-rule="nonzero" transform="matrix(1,0,0,-1,17.1709,26.0454)" />
		<path id="Vector" d="M11.8111 2.56842C11.6076 2.45891 11.3788 2.40076 11.1408 2.40075L11.1407 2.40075L11.1408 2.40078L11.1407 2.40078C11.1112 2.40078 11.0819 2.40178 11.053 2.40372C10.8455 2.41762 10.652 2.48004 10.4778 2.57347L10.4778 2.57064C10.4778 2.36206 10.4332 2.16046 10.3484 1.97692C10.2793 1.8271 10.1834 1.68932 10.0634 1.56957C9.99813 1.50432 9.92762 1.44623 9.85279 1.39569C9.7739 1.3424 9.6902 1.2975 9.60283 1.26146C9.43374 1.19172 9.25086 1.15515 9.0623 1.15515C9.02968 1.15515 8.99737 1.15636 8.96541 1.15872C8.75798 1.17401 8.56477 1.2376 8.39083 1.33232C8.38556 1.24217 8.37229 1.15355 8.35118 1.06742C8.32398 0.956402 8.28377 0.849507 8.23092 0.748763C8.16712 0.627164 8.0849 0.514525 7.9849 0.414417C7.93005 0.359568 7.87148 0.309774 7.80975 0.26527C7.57079 0.0929953 7.28449 0 6.98358 0C6.66992 0 6.38084 0.102799 6.14718 0.276397C5.97866 0.401596 5.83897 0.56362 5.73966 0.750465C5.64642 0.92592 5.58879 1.12326 5.57635 1.33256C5.39917 1.23679 5.20437 1.1757 5.00173 1.15967C4.93816 1.15464 4.87381 1.15405 4.80899 1.15821C4.65508 1.16831 4.50812 1.20396 4.37186 1.26101C3.85296 1.47827 3.4894 2.00589 3.4894 2.61423L3.4894 8.98088L2.90837 7.97428L2.76444 7.72492C2.61879 7.47153 2.40617 7.26882 2.15607 7.13382C1.93202 7.01288 1.6779 6.94628 1.41493 6.94628C1.14376 6.94628 0.875887 7.01743 0.638645 7.15337C0.343208 7.32465 0.131877 7.59959 0.0439945 7.92851C-0.044352 8.25764 0.0013514 8.60185 0.17216 8.89684C0.172395 8.89684 2.54415 13.004 2.68884 13.2563C2.69651 13.2732 2.71051 13.3045 2.72736 13.3422C2.7483 13.3892 2.77365 13.4461 2.79675 13.498C2.83657 13.5876 2.87073 13.6795 2.90347 13.7718C3.00909 14.07 3.13773 14.3515 3.28717 14.6147C4.14972 16.1342 5.70516 17.0454 7.52569 17.0454C8.05847 17.0454 8.57218 16.9551 9.05448 16.7879C11.083 16.0847 12.5559 14.0208 12.5559 11.5908L12.5561 3.81648C12.5561 3.7889 12.5554 3.76143 12.5538 3.73411C12.5341 3.38674 12.3897 3.0631 12.1422 2.81517C12.0429 2.71589 11.9315 2.63317 11.8111 2.56842ZM11.7987 3.73411C11.7809 3.58765 11.7156 3.45231 11.6098 3.34652C11.4849 3.22189 11.3186 3.15286 11.1407 3.15286L11.1407 3.15286C11.1131 3.15286 11.0858 3.15457 11.0591 3.15787C10.732 3.19827 10.4778 3.4781 10.4778 3.81631L10.4778 3.92047L10.4778 4.08638L10.4781 6.76856L10.4782 7.65185C10.4782 7.67805 10.4756 7.70362 10.4705 7.7283C10.4352 7.89959 10.2836 8.0281 10.102 8.0281C9.91657 8.0281 9.76278 7.89428 9.73154 7.71806C9.72773 7.69657 9.72574 7.67444 9.72574 7.65185L9.72574 2.57048C9.72574 2.52066 9.72034 2.47174 9.70983 2.4244C9.6828 2.3027 9.62197 2.19136 9.53208 2.10164C9.40627 1.9763 9.23993 1.90727 9.06253 1.90727C9.03464 1.90727 9.00715 1.909 8.98015 1.91236C8.7446 1.94164 8.547 2.09482 8.45483 2.30431C8.41899 2.38576 8.39909 2.47573 8.39909 2.57023L8.39909 2.62866L8.39909 2.66961L8.3991 2.84604L8.39928 6.76832L8.39932 7.65159C8.39932 7.67422 8.39733 7.69638 8.39351 7.7179C8.36221 7.89423 8.20826 8.02784 8.02307 8.02784C7.83806 8.02784 7.68455 7.89461 7.65283 7.71897C7.64888 7.69711 7.64682 7.67459 7.64682 7.65159L7.64682 1.41522C7.64682 1.34058 7.63468 1.26786 7.61133 1.19934C7.59562 1.15323 7.57484 1.10902 7.54928 1.06742C7.52241 1.02369 7.49026 0.982842 7.45316 0.945672C7.32805 0.820806 7.16125 0.752013 6.98361 0.752013C6.69373 0.752013 6.44664 0.939036 6.35669 1.19874C6.33318 1.26662 6.32041 1.33945 6.32041 1.41522L6.32041 1.5158L6.32048 3.25035L6.32061 6.76829L6.32064 7.65159C6.32064 7.67459 6.31858 7.69712 6.31464 7.71898C6.2829 7.89477 6.12921 8.02784 5.94439 8.02784C5.76125 8.02784 5.60867 7.89699 5.57504 7.72367C5.57051 7.70034 5.56814 7.67624 5.56814 7.65159L5.56814 2.57021C5.56814 2.39233 5.49935 2.226 5.37448 2.10114C5.26776 1.9946 5.13358 1.93115 4.98709 1.91302C4.94505 1.90782 4.902 1.90634 4.85829 1.90865C4.5183 1.93103 4.24171 2.24743 4.24171 2.61401L4.24171 10.3835C4.24171 10.5536 4.12745 10.7028 3.963 10.7468C3.81586 10.7867 3.66312 10.7338 3.57115 10.618C3.55975 10.6036 3.54927 10.5883 3.53986 10.572L3.0995 9.80962L2.90837 9.47871L2.62083 8.98088L2.15607 8.17622L2.11237 8.10057C2.09314 8.06706 2.07147 8.03545 2.04769 8.00582C1.8081 7.70737 1.35393 7.61036 1.01401 7.80561C0.893622 7.87511 0.806684 7.98866 0.770402 8.12343C0.734588 8.25818 0.753202 8.39908 0.823412 8.52041C0.887815 8.63192 0.950608 8.74064 1.01183 8.84665C1.65187 9.95485 2.12034 10.7662 2.46323 11.3621C2.52344 11.4668 2.57977 11.5648 2.63248 11.6566C3.01279 12.3189 3.20453 12.6584 3.30119 12.8408L3.30638 12.8363L3.3074 12.8375L3.31681 12.8484C3.34679 12.884 3.35894 12.9113 3.48425 13.1923C3.53208 13.2998 3.57307 13.41 3.61242 13.5203C3.68597 13.7279 3.77164 13.9255 3.86862 14.1125C4.35349 15.0477 5.12104 15.7183 6.0697 16.0525C6.51814 16.2105 7.00705 16.2933 7.52571 16.2933L7.52569 16.2932C7.98657 16.2932 8.43067 16.2127 8.84694 16.0638C10.5614 15.4504 11.8039 13.6769 11.8039 11.5907L11.8038 7.82493L11.8037 3.92109L11.8037 3.81631C11.8037 3.78861 11.802 3.76117 11.7987 3.73411Z" fill="rgb(76,175,79)" fill-rule="evenodd" transform="matrix(1,0,0,-1,17.1709,26.0454)" />
		<path id="Vector" d="M5.56096 9.95199L11.0207 13.2273C11.6789 13.6226 12.5259 13.4546 12.9481 12.8447C13.1022 12.6225 13.1809 12.3636 13.1931 12.0999C13.3967 12.2062 13.6181 12.2639 13.8436 12.2639C13.959 12.2639 14.075 12.2495 14.1895 12.221C14.5563 12.1294 14.8654 11.9001 15.0598 11.576C15.2544 11.2513 15.3112 10.8709 15.2195 10.5045C15.1349 10.1654 14.9288 9.8801 14.6421 9.68432C14.8426 9.56606 15.0155 9.40467 15.1385 9.19923C15.3331 8.87457 15.3899 8.49429 15.2984 8.12746C15.2068 7.76111 14.9776 7.45202 14.6529 7.25715L14.651 7.25597C14.848 7.13794 15.0178 6.9782 15.1394 6.77582C15.3343 6.45117 15.391 6.0707 15.2994 5.70388C15.2075 5.33729 14.9783 5.02819 14.6541 4.83356L7.98769 0.834262C6.7435 0.0881292 5.30515 -0.169408 3.93822 0.109781C2.55904 0.391558 1.41683 1.18432 0.722324 2.34209C-0.37676 4.17386 -0.212046 6.33807 1.15135 7.98986C1.21379 8.06525 1.27527 8.14206 1.33111 8.22169C1.39025 8.3058 1.45928 8.40476 1.48284 8.43868C1.62396 8.69077 3.92672 12.8397 3.92648 12.8392C4.15902 13.2588 4.59487 13.4963 5.04438 13.4961C5.25407 13.4961 5.46681 13.4445 5.66307 13.3356C5.90009 13.2032 6.09917 13.0102 6.23841 12.7777C6.52466 12.3006 6.53479 11.7036 6.26526 11.2204L5.56096 9.95199ZM5.59371 12.3909C5.52068 12.5127 5.42031 12.6098 5.29756 12.6786C5.04382 12.819 4.72435 12.7276 4.58466 12.4748C2.93691 9.50625 2.37521 8.49462 2.15845 8.13461L2.16339 8.13343C2.14525 8.07312 2.14525 8.07312 1.94688 7.7897C1.8795 7.69381 1.80623 7.60169 1.73155 7.51099C0.55918 6.09055 0.423054 4.30306 1.36707 2.72907C1.95183 1.75417 2.91827 1.08578 4.08846 0.846876C5.27138 0.606329 6.51817 0.830149 7.60031 1.47944L14.2673 5.47892C14.4195 5.57009 14.5269 5.71499 14.5698 5.88674C14.6127 6.05826 14.5861 6.2366 14.4947 6.38879C14.3067 6.70214 13.8984 6.80509 13.585 6.61638L10.2961 4.64324C10.118 4.53628 9.88662 4.59376 9.77989 4.77211C9.67293 4.95022 9.73065 5.18135 9.90876 5.28831L13.1979 7.26145L14.2661 7.90227C14.4183 7.99368 14.526 8.13858 14.5689 8.30986C14.6118 8.48161 14.5851 8.66019 14.4937 8.81215C14.3055 9.12573 13.8972 9.22774 13.5841 9.03973L9.22671 6.42577C9.04813 6.31857 8.81747 6.37653 8.71051 6.55464C8.60355 6.73275 8.66151 6.96387 8.83938 7.07083L14.1872 10.2789C14.3394 10.3704 14.4469 10.515 14.4897 10.6868C14.5326 10.8583 14.506 11.0366 14.4148 11.1888C14.3236 11.3408 14.1787 11.4482 14.007 11.4911C13.8343 11.534 13.6567 11.5073 13.5049 11.4164L12.515 10.8225C12.5147 10.8225 12.5147 10.8222 12.5145 10.8222L12.5142 10.8222L8.15711 8.20826C7.97853 8.10083 7.74764 8.15878 7.64091 8.33713C7.53396 8.51524 7.59191 8.74637 7.76979 8.85332L12.1272 11.4673C12.2794 11.5587 12.387 11.7036 12.4299 11.8749C12.477 12.0629 12.4412 12.2551 12.3295 12.4163C12.1359 12.6964 11.7217 12.7709 11.4077 12.5821L4.74547 8.58544C4.59964 8.49827 4.41281 8.51947 4.29053 8.63751C4.16802 8.75577 4.14045 8.94166 4.22291 9.09032L5.60824 11.5863C5.74725 11.8358 5.74183 12.1439 5.59364 12.3908L5.59371 12.3909Z" fill="rgb(76,175,79)" fill-rule="nonzero" transform="matrix(1,0,0,-1,7.96814,39.0001)" />
		<path id="Vector" d="M7.69954 11.2349L11.0207 13.2273C11.5427 13.5408 12.1835 13.5 12.6369 13.1654C12.7552 13.0781 12.8608 12.9709 12.9481 12.8447C12.9851 12.7914 13.0177 12.7359 13.0461 12.6788C13.1361 12.498 13.1838 12.3003 13.1931 12.0999C13.377 12.1959 13.5754 12.2523 13.7782 12.2623C13.8 12.2634 13.8218 12.2639 13.8436 12.2639C13.959 12.2639 14.075 12.2495 14.1895 12.221C14.258 12.2039 14.3246 12.182 14.3888 12.1555C14.6679 12.0404 14.9017 11.8395 15.0598 11.576C15.2153 11.3166 15.2828 11.0216 15.2569 10.7266C15.2504 10.6524 15.2379 10.5781 15.2195 10.5045C15.1852 10.3671 15.131 10.2385 15.0595 10.1212C14.9546 9.94889 14.8126 9.80077 14.6421 9.68432C14.8154 9.5821 14.968 9.44767 15.0857 9.28042C15.1042 9.25416 15.1218 9.2271 15.1385 9.19923C15.2349 9.03841 15.2974 8.86393 15.3249 8.68421C15.3394 8.58987 15.3441 8.49408 15.3391 8.39806C15.3343 8.30773 15.3208 8.21719 15.2984 8.12746C15.2573 7.96283 15.1883 7.80976 15.0954 7.67342C14.9815 7.50637 14.8317 7.36445 14.6529 7.25715L14.651 7.25597C14.8233 7.1527 14.9749 7.01751 15.0916 6.84977C15.1082 6.82579 15.1242 6.80114 15.1394 6.77582C15.2546 6.58398 15.3215 6.37264 15.3381 6.15615C15.3391 6.14241 15.34 6.12864 15.3406 6.11486L15.3406 6.11485C15.347 5.97835 15.3334 5.84017 15.2994 5.70388C15.2075 5.33729 14.9783 5.02819 14.6541 4.83356L7.98769 0.834262C6.7435 0.0881292 5.30515 -0.169408 3.93822 0.109781C2.55904 0.391558 1.41683 1.18432 0.722324 2.34209C-0.196697 3.87376 -0.232095 5.63787 0.578059 7.14048C0.736792 7.43488 0.927984 7.71925 1.15135 7.98986C1.21379 8.06525 1.27527 8.14206 1.33111 8.22169C1.36233 8.2661 1.39631 8.31464 1.42489 8.35556C1.45046 8.39216 1.47171 8.42267 1.48284 8.43868C1.62395 8.69076 3.92646 12.8392 3.92648 12.8392C4.15902 13.2588 4.59487 13.4963 5.04438 13.4961C5.25407 13.4961 5.46681 13.4445 5.66307 13.3356C5.90006 13.2032 6.09913 13.0103 6.23837 12.7778L6.23841 12.7777C6.37371 12.5522 6.44732 12.2999 6.45887 12.0455C6.46343 11.9451 6.45832 11.8443 6.44351 11.7448C6.41647 11.5629 6.3571 11.3851 6.26526 11.2204L6.12506 10.9679L5.56096 9.95199L6.55814 10.5502L7.69954 11.2349ZM11.357 12.5518L7.11733 10.0083L6.94476 9.90481L6.32045 9.53028L5.50019 9.0382L4.74547 8.58544C4.59964 8.49827 4.41281 8.51947 4.29053 8.63751C4.16802 8.75577 4.14045 8.94166 4.22291 9.09032L4.60031 9.77028L4.65031 9.86035L4.83574 10.1945L5.11436 10.6964L5.56577 11.5097L5.60824 11.5863C5.62723 11.6203 5.64352 11.6555 5.65712 11.6915C5.7431 11.9188 5.72159 12.1776 5.59364 12.3908L5.59371 12.3909C5.52068 12.5127 5.42031 12.6098 5.29756 12.6786C5.2472 12.7065 5.19426 12.7252 5.14064 12.7354C4.9241 12.7764 4.69663 12.6774 4.58466 12.4748C4.52201 12.3619 4.46094 12.2519 4.40139 12.1446C4.36643 12.0816 4.33199 12.0196 4.29807 11.9585C3.72956 10.9343 3.30684 10.1731 2.99109 9.60649C2.93908 9.51316 2.88998 9.42511 2.8436 9.34203C2.46463 8.66315 2.26785 8.31634 2.1586 8.13488L2.15845 8.13461L2.16339 8.13343L2.16298 8.13208C2.14524 8.0731 2.14375 8.07098 1.94688 7.7897C1.8795 7.69381 1.80623 7.60169 1.73155 7.51099C1.58422 7.33249 1.45326 7.14819 1.33875 6.95925C0.542025 5.64467 0.541685 4.10526 1.36707 2.72907C1.95183 1.75417 2.91826 1.08578 4.08846 0.846876C5.27138 0.606329 6.51817 0.830149 7.60031 1.47944L10.8361 3.42058L14.1808 5.42704L14.2673 5.47892C14.4195 5.57009 14.5269 5.71499 14.5698 5.88674C14.6127 6.05826 14.5861 6.2366 14.4947 6.38879C14.4804 6.41262 14.4648 6.43522 14.4481 6.45657C14.2451 6.71611 13.8745 6.79075 13.585 6.61638L13.4979 6.56409L13.3549 6.4783L11.0536 5.09772L10.2961 4.64324C10.2747 4.63037 10.2525 4.61988 10.2298 4.6117C10.0641 4.55186 9.87378 4.61522 9.77989 4.77211C9.68466 4.93069 9.71998 5.13131 9.85459 5.24888C9.87116 5.26336 9.88924 5.27658 9.90876 5.28831L10.6663 5.74275L12.6233 6.91672L13.1979 7.26145L14.1785 7.84972L14.2661 7.90227C14.3087 7.92786 14.3479 7.95764 14.383 7.99101C14.4735 8.07687 14.538 8.18652 14.5689 8.30986C14.6118 8.48161 14.5851 8.66019 14.4937 8.81215C14.4794 8.836 14.4638 8.85863 14.4471 8.87999C14.2439 9.13957 13.8734 9.21344 13.5841 9.03973L13.4967 8.98729L13.3493 8.89888L9.98412 6.88013L9.22671 6.42577C9.20708 6.41398 9.18682 6.4042 9.16617 6.39635C8.99892 6.33276 8.80572 6.3961 8.71051 6.55464C8.61524 6.71328 8.65081 6.91399 8.78542 7.03155C8.80194 7.04597 8.81994 7.05914 8.83938 7.07083L9.59696 7.52529L12.6118 9.33389L12.8706 9.48913L13.0492 9.59623L13.0496 9.5965L13.1967 9.68472L13.324 9.76111L13.3241 9.76114L14.1003 10.2268L14.1872 10.2789C14.2512 10.3174 14.3073 10.3653 14.354 10.4206C14.4184 10.4968 14.4649 10.5873 14.4897 10.6868C14.5326 10.8583 14.506 11.0366 14.4148 11.1888C14.3236 11.3408 14.1787 11.4482 14.007 11.4911C13.9073 11.5158 13.8061 11.5174 13.7091 11.4969C13.6379 11.4818 13.5691 11.4549 13.5049 11.4164L13.4183 11.3644L12.515 10.8225L12.5145 10.8222L12.5142 10.8222L11.9339 10.4741L8.9147 8.66276L8.15711 8.20826C8.13755 8.19649 8.11736 8.18671 8.09677 8.17885C7.92943 8.11497 7.73595 8.17832 7.64091 8.33713C7.54689 8.4937 7.5803 8.69124 7.71059 8.80938C7.72852 8.82564 7.74827 8.84039 7.76979 8.85332L8.52723 9.30771L11.8942 11.3276L12.0074 11.3955L12.1272 11.4673L12.1278 11.4677C12.2797 11.5591 12.3871 11.7039 12.4299 11.8749C12.4533 11.9682 12.4562 12.0626 12.4396 12.1537L12.4396 12.1539L12.4393 12.1556C12.4299 12.2064 12.4143 12.2561 12.3929 12.3041C12.3756 12.3428 12.3545 12.3803 12.3295 12.4163C12.1359 12.6964 11.7217 12.7709 11.4077 12.5821L11.357 12.5518Z" fill="rgb(76,175,79)" fill-rule="evenodd" transform="matrix(1,0,0,-1,7.96814,39.0001)" />
		<path id="Vector" d="M14.6203 2.34189C13.926 1.18394 12.7841 0.391363 11.4046 0.109581C10.0375 -0.169132 8.59961 0.0879055 7.35517 0.834061L0.688166 4.83354C0.363748 5.02815 0.134275 5.33725 0.0423938 5.70434C-0.0487815 6.07069 0.00823122 6.4512 0.202597 6.77538C0.323928 6.978 0.494029 7.13773 0.691229 7.25576L0.689344 7.25694C0.364926 7.45155 0.135454 7.76065 0.0440559 8.12726C-0.047825 8.49385 0.00918625 8.8746 0.203788 9.1992C0.329124 9.4077 0.500878 9.57074 0.696896 9.68642C0.41229 9.8822 0.207323 10.1666 0.122981 10.504C0.0311003 10.8708 0.0881134 11.2513 0.282715 11.5755C0.477086 11.8999 0.786425 12.1291 1.15303 12.2208C1.26753 12.2495 1.38368 12.2637 1.49866 12.2637C1.72436 12.2634 1.94582 12.2062 2.14937 12.0997C2.16186 12.3633 2.24031 12.6222 2.39439 12.8444C2.81682 13.4539 3.66308 13.6226 4.3223 13.227L9.78184 9.95221L9.07811 11.2198C8.80811 11.7037 8.81801 12.3007 9.10426 12.778C9.24373 13.0103 9.44305 13.2033 9.68123 13.3368C9.87702 13.4452 10.0891 13.4966 10.2982 13.4966C10.7475 13.4963 11.1839 13.2593 11.4161 12.8397C12.2257 11.3811 13.7533 8.63027 13.8607 8.43823C13.8835 8.40501 13.9526 8.30606 14.0117 8.22196C14.068 8.14209 14.1288 8.06576 14.1917 7.98989C15.5549 6.33743 15.7193 4.17346 14.6203 2.34187L14.6203 2.34189ZM13.6113 7.51042C13.5363 7.60112 13.4628 7.69371 13.3959 7.78913C13.1924 8.07797 13.1872 8.08551 13.1719 8.16114C12.9339 8.55482 12.3534 9.59991 10.7577 12.4747C10.6178 12.7271 10.2997 12.8192 10.0465 12.6792C9.92182 12.6095 9.82169 12.5122 9.74866 12.3904C9.6007 12.1437 9.59504 11.8355 9.73476 11.5853L11.1196 9.09011C11.2023 8.94121 11.1747 8.75556 11.0525 8.63729C10.9304 8.51879 10.7438 8.49805 10.5973 8.58523L3.9351 12.5819C3.62105 12.7702 3.20712 12.6964 3.01298 12.4161C2.9013 12.2549 2.86573 12.0627 2.91237 11.8749C2.95525 11.7034 3.06292 11.5587 3.21535 11.4673C3.21582 11.4671 3.21606 11.4666 3.21653 11.4664L7.57252 8.85313C7.75063 8.74617 7.80835 8.51528 7.70139 8.33693C7.59443 8.15906 7.36377 8.10086 7.18519 8.20806L1.83736 11.4162C1.68563 11.5071 1.50705 11.534 1.33553 11.4909C1.16354 11.448 1.01889 11.3405 0.927714 11.1881C0.836303 11.0362 0.809916 10.8578 0.852322 10.6863C0.895201 10.5148 1.00287 10.3699 1.15506 10.2785L2.19571 9.65436L6.50266 7.07031C6.68077 6.96335 6.7385 6.73246 6.63153 6.55411C6.52457 6.37623 6.29392 6.31827 6.11534 6.42524L1.75844 9.03921C1.4451 9.22769 1.03704 9.12544 0.84856 8.81162C0.75715 8.65943 0.730763 8.48108 0.773169 8.30956C0.816048 8.13804 0.923716 7.99339 1.07615 7.90174L2.14435 7.26092L5.43304 5.28778C5.61115 5.18082 5.66888 4.94993 5.56191 4.77158C5.45495 4.59371 5.2243 4.53527 5.04572 4.64271L1.75703 6.61585C1.6053 6.70679 1.42743 6.73365 1.25497 6.69054C1.08345 6.64766 0.938323 6.54023 0.847148 6.38827C0.755973 6.23607 0.729351 6.05749 0.771757 5.88621C0.814636 5.71469 0.922305 5.57004 1.07473 5.47839L7.74174 1.47891C8.82363 0.829821 10.0713 0.605094 11.2536 0.846347C12.4235 1.08524 13.39 1.75364 13.9747 2.72854C14.9197 4.30283 14.7838 6.09051 13.6117 7.51046L13.6113 7.51042Z" fill="rgb(76,175,79)" fill-rule="nonzero" transform="matrix(1,0,0,-1,24.9978,38.9996)" />
		<path id="Vector" d="M15.2539 3.9712C15.1446 3.41411 14.9338 2.86448 14.6203 2.3419L14.6203 2.34187L14.6203 2.34189L14.6203 2.34186C13.99 1.29081 12.991 0.540789 11.7804 0.200551C11.6573 0.165952 11.532 0.13559 11.4046 0.109581C10.0375 -0.169132 8.59961 0.0879055 7.35517 0.834061L0.688166 4.83354C0.363748 5.02815 0.134275 5.33725 0.0423938 5.70434C0.00505264 5.85438 -0.00743234 6.0068 0.00419454 6.15674C0.0209568 6.37292 0.0878343 6.58397 0.202597 6.77538C0.217787 6.80075 0.233741 6.82544 0.250417 6.84947C0.366944 7.01734 0.518717 7.15251 0.691229 7.25576L0.689344 7.25694C0.510614 7.36415 0.360703 7.50612 0.24682 7.67331C0.153991 7.80959 0.0851008 7.96262 0.0440559 8.12726C0.0215746 8.21695 0.00800711 8.3075 0.0031879 8.39786C-0.00227223 8.50024 0.00349755 8.60239 0.0202564 8.7028C0.0491595 8.87598 0.110748 9.04401 0.203788 9.1992C0.220491 9.22699 0.23802 9.25397 0.25632 9.28014C0.375335 9.45032 0.527002 9.58616 0.696896 9.68642C0.528102 9.80253 0.38732 9.9498 0.283101 10.1208C0.211595 10.2382 0.157301 10.3667 0.122981 10.504C0.104887 10.5762 0.0925678 10.649 0.0859359 10.7217C0.0588906 11.0185 0.126435 11.3151 0.282715 11.5755C0.441187 11.84 0.676083 12.0412 0.95613 12.1562C1.01957 12.1822 1.08532 12.2038 1.15303 12.2208C1.26753 12.2495 1.38368 12.2637 1.49866 12.2637C1.52061 12.2636 1.54253 12.2631 1.56439 12.262C1.76728 12.2518 1.96562 12.1958 2.14937 12.0997C2.15886 12.3 2.20645 12.4977 2.29638 12.6785C2.32478 12.7356 2.35741 12.7911 2.39439 12.8444C2.48225 12.9712 2.58843 13.0789 2.70745 13.1664C3.16072 13.4996 3.80018 13.5403 4.3223 13.227L7.64326 11.235L8.78404 10.5507L9.78184 9.95221L9.21822 10.9674L9.07811 11.2198C8.93572 11.475 8.87117 11.7616 8.88396 12.0456C8.89541 12.3001 8.96897 12.5524 9.10426 12.778C9.24373 13.0103 9.44305 13.2033 9.68123 13.3368C9.87702 13.4452 10.0891 13.4966 10.2982 13.4966C10.7475 13.4963 11.1839 13.2593 11.4161 12.8397C12.0581 11.683 13.1516 9.71372 13.6304 8.85224C13.7554 8.62737 13.8385 8.47798 13.8607 8.43823C13.8835 8.40501 13.9526 8.30606 14.0117 8.22196C14.068 8.14209 14.1288 8.06576 14.1917 7.98989L14.1917 7.98987C15.166 6.80889 15.5279 5.36665 15.2539 3.9712ZM13.6113 7.51042L13.6117 7.51046C14.5529 6.37014 14.826 4.99267 14.4076 3.67901C14.3703 3.56195 14.3275 3.4454 14.2793 3.32957C14.1947 3.12675 14.0933 2.92613 13.9749 2.72886L13.9747 2.72854C13.5976 2.09974 13.0616 1.59845 12.4147 1.25768C12.0586 1.0701 11.6689 0.931158 11.2536 0.846347C10.0713 0.605094 8.82363 0.829821 7.74174 1.47891L4.50701 3.41939L1.16147 5.42636L1.07473 5.47839C0.922305 5.57004 0.814636 5.71469 0.771757 5.88621C0.729351 6.05749 0.755973 6.23607 0.847148 6.38827C0.861418 6.41205 0.877009 6.43474 0.893816 6.45627C0.984396 6.57227 1.11029 6.65437 1.25497 6.69054C1.42743 6.73365 1.6053 6.70679 1.75703 6.61585L1.84365 6.56388L1.98738 6.47764L4.28835 5.09712L5.04572 4.64271C5.06744 4.62964 5.08994 4.61902 5.11289 4.61078C5.27859 4.55126 5.46796 4.61535 5.56191 4.77158C5.65727 4.93058 5.62174 5.13133 5.48671 5.24881C5.47027 5.26311 5.45236 5.27617 5.43304 5.28778L4.67563 5.74221L2.71949 6.91584L2.14435 7.26092L1.16361 7.84927L1.07615 7.90174C1.03342 7.92743 0.99421 7.95729 0.958958 7.99073C0.868447 8.07659 0.804029 8.18612 0.773169 8.30956C0.730763 8.48108 0.75715 8.65943 0.84856 8.81162C0.862902 8.8355 0.878515 8.85815 0.89526 8.87955C1.09859 9.13931 1.46894 9.21334 1.75844 9.03921L1.84498 8.98729L1.98913 8.90081L5.35797 6.87963L6.11534 6.42524C6.13468 6.41366 6.15462 6.40401 6.17496 6.39623C6.34242 6.33223 6.53616 6.3955 6.63153 6.55411C6.7272 6.71361 6.69113 6.91514 6.55503 7.03246C6.53896 7.04632 6.52148 7.059 6.50266 7.07031L5.74518 7.52477L2.72646 9.33592L2.19571 9.65436L1.24049 10.2272L1.15506 10.2785C1.09101 10.3169 1.03485 10.3649 0.988084 10.4203C0.923722 10.4966 0.877156 10.587 0.852322 10.6863C0.809916 10.8578 0.836303 11.0362 0.927714 11.1881C1.01889 11.3405 1.16354 11.448 1.33553 11.4909C1.43462 11.5158 1.53607 11.5173 1.63333 11.4967C1.70443 11.4816 1.77329 11.4546 1.83736 11.4162L1.92273 11.365L2.87899 10.7913L3.40722 10.4744L6.42782 8.66241L7.18519 8.20806C7.20406 8.19674 7.22351 8.18725 7.24334 8.17957C7.41114 8.1145 7.60573 8.17785 7.70139 8.33693C7.79559 8.49399 7.76206 8.6918 7.63108 8.80983C7.61332 8.82583 7.59378 8.84036 7.57252 8.85313L6.81504 9.30755L3.44764 11.3277L3.33475 11.3955L3.21653 11.4664L3.21535 11.4673C3.06292 11.5587 2.95525 11.7034 2.91237 11.8749C2.87615 12.0207 2.88951 12.1692 2.94959 12.3038C2.96687 12.3425 2.98803 12.3801 3.01298 12.4161C3.18099 12.6587 3.51359 12.7466 3.80362 12.6438C3.83523 12.6327 3.86633 12.6192 3.89666 12.6034C3.90962 12.5967 3.92244 12.5895 3.9351 12.5819L3.98571 12.5516L4.01702 12.5328L4.01765 12.5324L8.22591 10.0078L8.39544 9.90613L9.02191 9.53031L9.51432 9.2349L9.84258 9.03798L10.5973 8.58523C10.7438 8.49805 10.9304 8.51879 11.0525 8.63729C11.1621 8.74331 11.1956 8.90347 11.1418 9.04277C11.1356 9.05886 11.1282 9.07469 11.1196 9.09011L10.6924 9.85991L10.5067 10.1944L10.2282 10.6963L9.77641 11.5103L9.73476 11.5853C9.71567 11.6195 9.6993 11.6548 9.68563 11.6908C9.59925 11.9186 9.62091 12.1774 9.74866 12.3904C9.82169 12.5122 9.92182 12.6095 10.0465 12.6792C10.2997 12.8192 10.6178 12.7271 10.7577 12.4747C10.8203 12.362 10.8813 12.2521 10.9408 12.1449C11.56 11.0294 12.0145 10.2109 12.35 9.60953C12.8043 8.79521 13.0404 8.3787 13.1719 8.16114C13.1872 8.08551 13.1924 8.07797 13.3959 7.78913C13.4628 7.69371 13.5363 7.60112 13.6113 7.51042Z" fill="rgb(76,175,79)" fill-rule="evenodd" transform="matrix(1,0,0,-1,24.9978,38.9996)" />
	</g>
</svg>
