<svg viewBox="0 0 48 48" xmlns="http://www.w3.org/2000/svg" xmlns:xlink="http://www.w3.org/1999/xlink" width="48.000000" height="48.000000" fill="none">
	<rect id="Icon" width="48.000000" height="48.000000" x="0.000000" y="0.000000" fill="rgb(255,255,255)" fill-opacity="0" />
	<path id="Vector" d="M3 14.25C3 12.4598 3.71116 10.7429 4.97703 9.47703C6.2429 8.21116 7.95979 7.5 9.75 7.5L38.25 7.5C40.0402 7.5 41.7571 8.21116 43.023 9.47703C44.2888 10.7429 45 12.4598 45 14.25L45 33.75C45 35.5402 44.2888 37.2571 43.023 38.523C41.7571 39.7888 40.0402 40.5 38.25 40.5L9.75 40.5C7.95979 40.5 6.2429 39.7888 4.97703 38.523C3.71116 37.2571 3 35.5402 3 33.75L3 14.25ZM9.75 10.5C8.75544 10.5 7.80161 10.8951 7.09835 11.5983C6.39509 12.3016 6 13.2554 6 14.25L6 16.5L42 16.5L42 14.25C42 13.2554 41.6049 12.3016 40.9016 11.5983C40.1984 10.8951 39.2446 10.5 38.25 10.5L9.75 10.5ZM6 33.75C6 34.7446 6.39509 35.6984 7.09835 36.4016C7.80161 37.1049 8.75544 37.5 9.75 37.5L38.25 37.5C39.2446 37.5 40.1984 37.1049 40.9016 36.4016C41.6049 35.6984 42 34.7446 42 33.75L42 19.5L6 19.5L6 33.75ZM31.5 28.5L36 28.5C36.3978 28.5 36.7794 28.658 37.0607 28.9393C37.342 29.2206 37.5 29.6022 37.5 30C37.5 30.3978 37.342 30.7794 37.0607 31.0607C36.7794 31.342 36.3978 31.5 36 31.5L31.5 31.5C31.1022 31.5 30.7206 31.342 30.4393 31.0607C30.158 30.7794 30 30.3978 30 30C30 29.6022 30.158 29.2206 30.4393 28.9393C30.7206 28.658 31.1022 28.5 31.5 28.5Z" fill="rgb(76,175,79)" fill-rule="nonzero" />
	<path id="Vector" d="M4.97703 9.47703C3.71116 10.7429 3 12.4598 3 14.25L3 33.75C3 35.5402 3.71116 37.2571 4.97703 38.523C6.2429 39.7888 7.95979 40.5 9.75 40.5L38.25 40.5C40.0402 40.5 41.7571 39.7888 43.023 38.523C44.2888 37.2571 45 35.5402 45 33.75L45 14.25C45 12.4598 44.2888 10.7429 43.023 9.47703C41.7571 8.21116 40.0402 7.5 38.25 7.5L9.75 7.5C7.95979 7.5 6.2429 8.21116 4.97703 9.47703ZM4.42103 12.0427C4.70172 11.365 5.12276 10.7455 5.68414 10.1841C6.24551 9.62276 6.86503 9.20172 7.54267 8.92103C8.22031 8.64034 8.95609 8.5 9.75 8.5L38.25 8.5C39.0439 8.5 39.7797 8.64035 40.4573 8.92104C41.135 9.20173 41.7545 9.62276 42.3159 10.1841C42.8772 10.7455 43.2983 11.365 43.579 12.0427C43.8597 12.7203 44 13.4561 44 14.25L44 33.75C44 34.5439 43.8597 35.2797 43.579 35.9573C43.2983 36.635 42.8772 37.2545 42.3159 37.8159C41.7545 38.3772 41.135 38.7983 40.4574 39.079C39.7797 39.3596 39.0439 39.5 38.25 39.5L9.75 39.5C8.9561 39.5 8.22033 39.3597 7.54268 39.079C6.86504 38.7983 6.24552 38.3772 5.68414 37.8159C5.12275 37.2545 4.70171 36.6349 4.42102 35.9573C4.14034 35.2797 4 34.5439 4 33.75L4 14.25C4 13.4561 4.14035 12.7203 4.42103 12.0427ZM7.92655 9.84781C7.36676 10.0797 6.85499 10.4275 6.39124 10.8912C5.9275 11.355 5.57968 11.8668 5.34781 12.4266C5.11594 12.9863 5 13.5942 5 14.25L5 17.5L43 17.5L43 14.25C43 13.5942 42.8841 12.9863 42.6522 12.4265C42.4203 11.8668 42.0725 11.355 41.6088 10.8912C41.145 10.4275 40.6332 10.0797 40.0734 9.84781C39.5137 9.61594 38.9058 9.5 38.25 9.5L9.75 9.5C9.09416 9.5 8.48635 9.61594 7.92655 9.84781ZM7.09835 11.5983C7.80161 10.8951 8.75544 10.5 9.75 10.5L38.25 10.5C39.2446 10.5 40.1984 10.8951 40.9016 11.5983C41.6049 12.3016 42 13.2554 42 14.25L42 16.5L6 16.5L6 14.25C6 13.2554 6.39509 12.3016 7.09835 11.5983ZM5.3478 35.5734C5.57967 36.1332 5.92749 36.645 6.39124 37.1088C6.85499 37.5725 7.36676 37.9203 7.92656 38.1522C8.48635 38.3841 9.09416 38.5 9.75 38.5L38.25 38.5C38.9058 38.5 39.5137 38.3841 40.0734 38.1522C40.6332 37.9203 41.145 37.5725 41.6088 37.1088C42.0725 36.645 42.4203 36.1332 42.6522 35.5734C42.8841 35.0137 43 34.4058 43 33.75L43 18.5L5 18.5L5 33.75C5 34.4058 5.11593 35.0136 5.3478 35.5734ZM42 20.5L42 33.75C42 34.7446 41.6049 35.6984 40.9016 36.4016C40.1984 37.1049 39.2446 37.5 38.25 37.5L9.75 37.5C8.75544 37.5 7.80161 37.1049 7.09835 36.4016C6.39509 35.6984 6 34.7446 6 33.75L6 19.5L42 19.5L42 20.5ZM36 28.5L31.5 28.5C31.1022 28.5 30.7206 28.658 30.4393 28.9393C30.158 29.2206 30 29.6022 30 30C30 30.3978 30.158 30.7794 30.4393 31.0607C30.7206 31.342 31.1022 31.5 31.5 31.5L36 31.5C36.3978 31.5 36.7794 31.342 37.0607 31.0607C37.342 30.7794 37.5 30.3978 37.5 30C37.5 29.6022 37.342 29.2206 37.0607 28.9393C36.7794 28.658 36.3978 28.5 36 28.5ZM31.5 29.5L36 29.5C36.069 29.5 36.133 29.5122 36.192 29.5366C36.2509 29.561 36.3047 29.5976 36.3536 29.6464C36.4024 29.6953 36.439 29.7491 36.4634 29.8081C36.4878 29.867 36.5 29.931 36.5 30C36.5 30.069 36.4878 30.133 36.4634 30.1919C36.439 30.2509 36.4024 30.3047 36.3536 30.3536C36.3048 30.4024 36.2509 30.439 36.192 30.4634C36.1331 30.4878 36.0691 30.5 36 30.5L31.5 30.5C31.431 30.5 31.367 30.4878 31.3081 30.4634C31.2491 30.439 31.1953 30.4024 31.1464 30.3536C31.0976 30.3047 31.061 30.2509 31.0366 30.1919C31.0122 30.133 31 30.069 31 30C31 29.931 31.0122 29.867 31.0366 29.8081C31.061 29.7491 31.0976 29.6953 31.1464 29.6464C31.1953 29.5976 31.2491 29.561 31.3081 29.5366C31.367 29.5122 31.431 29.5 31.5 29.5Z" fill="rgb(76,175,79)" fill-rule="evenodd" />
</svg>
