<svg viewBox="0 0 154.49 24" xmlns="http://www.w3.org/2000/svg" xmlns:xlink="http://www.w3.org/1999/xlink" width="154.490417" height="24.000000" fill="none" customFrame="#000000">
	<defs>
		<clipPath id="clipPath_0">
			<rect width="35.000000" height="24.000000" x="0.000000" y="0.000000" fill="rgb(255,255,255)" />
		</clipPath>
	</defs>
	<rect id="Logo" width="154.490417" height="24.000000" x="0.000000" y="0.000000" />
	<g id="Icon" customFrame="url(#clipPath_0)">
		<rect id="Icon" width="35.000000" height="24.000000" x="0.000000" y="0.000000" fill="rgb(255,255,255)" fill-opacity="0" />
		<path id="Vector" d="M18.7863 13.134L13.3954 22.3669L8.00448 13.134L18.7863 13.134ZM20.2305 12.3088L6.55444 12.3088L13.3954 24L20.2305 12.3088Z" fill="rgb(38,50,56)" fill-rule="nonzero" />
		<path id="Vector" d="M28.1591 1.65038L33.55 10.8833L22.7681 10.8833L28.1591 1.65038ZM28.1591 0L21.3181 11.6912L35 11.6912L28.1591 0Z" fill="rgb(38,50,56)" fill-rule="nonzero" />
		<path id="Vector" d="M0 0L5.7359 10.3409L12.0038 0.259661L0 0Z" fill="rgb(76,175,79)" fill-rule="nonzero" />
		<path id="Vector" d="M13.3955 0.905884L19.4121 11.189L7.36728 11.189L13.3955 0.905884Z" fill="rgb(76,175,79)" fill-rule="nonzero" />
		<path id="Vector" d="M20.9615 13.434L26.9839 24L14.6526 24L20.7744 13.434L20.9615 13.434Z" fill="rgb(76,175,79)" fill-rule="nonzero" />
		<path id="Vector" d="M22.2653 12.7935L28.1591 23.1978L34.1347 12.7935L22.2653 12.7935Z" fill="rgb(76,175,79)" fill-rule="nonzero" />
	</g>
	<path id="Nexcent" d="M60.0327 1.66901L60.0327 22.0326L56.3139 22.0326L47.4545 9.21588L47.3054 9.21588L47.3054 22.0326L43 22.0326L43 1.66901L46.7784 1.66901L55.5682 14.4758L55.7472 14.4758L55.7472 1.66901L60.0327 1.66901ZM147.103 3.10083L151.338 3.10083L151.338 6.75992L154.212 6.75992L154.212 9.94173L151.338 9.94173L151.338 17.3395C151.338 17.7306 151.398 18.0355 151.517 18.2542C151.637 18.4664 151.802 18.6155 152.015 18.7017C152.233 18.7879 152.485 18.8309 152.77 18.8309C152.969 18.8309 153.168 18.8144 153.367 18.7812C153.566 18.7415 153.718 18.7116 153.824 18.6917L154.49 21.8437C154.278 21.91 153.98 21.9862 153.596 22.0724C153.211 22.1652 152.744 22.2216 152.194 22.2415C151.173 22.2812 150.278 22.1453 149.509 21.8338C148.747 21.5222 148.153 21.0383 147.729 20.3821C147.311 19.7359 147.102 18.9227 147.102 17.9424C147.102 17.927 147.103 17.9117 147.103 17.8963L147.103 9.94173L145.015 9.94173L145.015 6.75992L147.103 6.75992L147.103 3.10083ZM70.4705 22.3309C68.8995 22.3309 67.5472 22.0128 66.4137 21.3764C65.2868 20.7334 64.4184 19.8253 63.8086 18.652Q62.8938 16.8821 62.8938 14.4659Q62.8938 12.1093 63.8086 10.3295Q64.3668 9.24343 65.2027 8.44982Q65.7367 7.94292 66.3839 7.55537Q66.415 7.53682 66.4464 7.51862L66.4481 7.51765Q68.0974 6.56105 70.3015 6.56105C71.3091 6.56105 72.247 6.72346 73.1154 7.04827C73.9904 7.36645 74.7527 7.84704 75.4023 8.49003C76.0586 9.13302 76.569 9.94173 76.9336 10.9162C77.2982 11.884 77.4805 13.0175 77.4805 14.3167L77.4805 15.4801L67.0799 15.4801L67.0799 15.49C67.0799 16.2457 67.2191 16.8986 67.4975 17.4488C67.7826 17.999 68.1836 18.4233 68.7006 18.7216C69.2177 19.0199 69.8308 19.169 70.5401 19.169C71.0108 19.169 71.4416 19.1027 71.8327 18.9701Q72.3462 18.7961 72.7301 18.4697L72.7305 18.4694Q72.7851 18.423 72.837 18.3736C73.1154 18.1084 73.3275 17.7836 73.4734 17.3991L77.391 17.6576C77.1921 18.5989 76.7844 19.4209 76.168 20.1236Q75.2532 21.1676 73.8015 21.7542Q72.3597 22.3309 70.4705 22.3309ZM102.403 22.3309C100.839 22.3309 99.493 21.9995 98.3661 21.3366C97.2459 20.6671 96.3841 19.7391 95.7809 18.5525C95.1843 17.366 94.886 16.0004 94.886 14.4559C94.886 12.8915 95.1876 11.5194 95.7908 10.3395C96.4007 9.15291 97.2657 8.22819 98.386 7.56531Q100.066 6.56105 102.383 6.56105C103.716 6.56105 104.882 6.803 105.883 7.2869C106.884 7.77081 107.676 8.45026 108.26 9.32526C108.843 10.2003 109.164 11.2277 109.224 12.4076L105.227 12.4076C105.114 11.6453 104.816 11.0322 104.332 10.5682C103.855 10.0975 103.228 9.86219 102.453 9.86219C101.797 9.86219 101.223 10.0412 100.733 10.3991C100.249 10.7504 99.8709 11.2642 99.5991 11.9403C99.3273 12.6165 99.1914 13.4351 99.1914 14.3963Q99.1914 15.8579 99.5891 16.8821C99.8609 17.5648 100.242 18.0852 100.733 18.4432C101.223 18.8011 101.797 18.9801 102.453 18.9801C102.937 18.9801 103.371 18.8807 103.755 18.6818C104.146 18.4829 104.468 18.1946 104.72 17.8167C104.978 17.4323 105.147 16.9716 105.227 16.4346L109.224 16.4346C109.158 17.6013 108.84 18.6288 108.27 19.517C107.706 20.3986 106.927 21.088 105.933 21.5852Q104.441 22.3309 102.403 22.3309ZM118.896 22.3309C117.325 22.3309 115.973 22.0128 114.839 21.3764C113.713 20.7334 112.844 19.8253 112.234 18.652C111.625 17.472 111.32 16.0767 111.32 14.4659C111.32 12.8949 111.625 11.5161 112.234 10.3295C112.844 9.14297 113.703 8.21825 114.81 7.55537C115.923 6.89249 117.229 6.56105 118.727 6.56105Q120.239 6.56105 121.541 7.04827C122.416 7.36645 123.179 7.84704 123.828 8.49003C124.484 9.13302 124.995 9.94173 125.359 10.9162C125.724 11.884 125.906 13.0175 125.906 14.3167L125.906 15.4801L115.506 15.4801L115.506 15.49Q115.506 16.6236 115.923 17.4488C116.208 17.999 116.609 18.4233 117.126 18.7216C117.643 19.0199 118.257 19.169 118.966 19.169C119.437 19.169 119.867 19.1027 120.259 18.9701C120.65 18.8376 120.984 18.6387 121.263 18.3736C121.541 18.1084 121.753 17.7836 121.899 17.3991L125.817 17.6576C125.618 18.5989 125.21 19.4209 124.594 20.1236Q123.679 21.1676 122.227 21.7542C121.266 22.1387 120.156 22.3309 118.896 22.3309ZM132.906 13.2031L132.906 22.0326L128.67 22.0326L128.67 6.75992L132.707 6.75992L132.707 9.45452L132.886 9.45452C133.224 8.56626 133.791 7.86361 134.587 7.34656C135.382 6.82289 136.347 6.56105 137.48 6.56105C138.541 6.56105 139.465 6.79306 140.254 7.25708C141.043 7.72109 141.656 8.38397 142.094 9.24571Q142.75 10.5284 142.75 12.3082L142.75 22.0326L138.514 22.0326L138.514 13.0639C138.514 13.0513 138.514 13.0387 138.514 13.0261C138.514 12.1096 138.276 11.393 137.798 10.8764C137.314 10.3461 136.648 10.0809 135.8 10.0809C135.23 10.0809 134.726 10.2036 134.288 10.4488Q134.101 10.5554 133.937 10.6903Q133.535 11.0212 133.274 11.5227C133.036 11.9867 132.913 12.5468 132.906 13.2031ZM83.511 6.75992L86.315 12.0994L89.1886 6.75992L93.5337 6.75992L89.109 14.3963L93.6531 22.0326L89.3278 22.0326L86.315 16.7528L83.3519 22.0326L78.9769 22.0326L83.511 14.3963L79.136 6.75992L83.511 6.75992ZM67.0839 12.8551L73.4933 12.8551C73.4933 12.2452 73.3607 11.705 73.0955 11.2343C72.8304 10.7637 72.4625 10.3958 71.9918 10.1307C71.5278 9.85887 70.9876 9.72298 70.3711 9.72298C69.7281 9.72298 69.158 9.87213 68.6609 10.1704Q68.2887 10.3917 67.9979 10.6919L67.9979 10.6919Q67.7138 10.9851 67.5075 11.3537C67.2506 11.8062 67.1094 12.3067 67.0839 12.8551ZM115.51 12.8551L121.919 12.8551C121.919 12.2452 121.786 11.705 121.521 11.2343C121.256 10.7637 120.888 10.3958 120.418 10.1307Q120.412 10.1272 120.406 10.1238Q120.389 10.1142 120.373 10.1049Q119.692 9.72298 118.797 9.72298C118.154 9.72298 117.584 9.87213 117.087 10.1704C116.596 10.4621 116.212 10.8565 115.933 11.3537C115.676 11.8062 115.535 12.3067 115.51 12.8551Z" fill="rgb(38,50,56)" fill-rule="evenodd" />
</svg>
